<svg version="1" xmlns="http://www.w3.org/2000/svg" width="346.667" height="346.667" viewBox="0 0 260.000000 260.000000"><path d="M0 130v130h260V0H0v130zM79.1 19.3c12.6 4.2 22 12.1 27.2 22.6 3 6.3 3.2 7.2 3.2 18.1 0 10.4-.3 12-2.7 17.2-1.5 3.2-3.9 7.3-5.3 9.2-3.6 4.8-12 10.3-20.1 13.3-6.1 2.3-8.9 2.6-23.6 3.1l-16.8.5V153H15V16.8l29.8.5c23.6.3 30.7.7 34.3 2zM257 27.5V38h-42v115h-27V38h-41V17h110v10.5zM123.2 132.7l6.4 25.7 7.3-25.7 7.4-25.7H177v136H152.7l.5-50.8c.3-27.9.3-50 0-49.2-.3.8-4.3 13.4-8.8 28l-8.2 26.5-6.5.3-6.6.3-2.2-7.3c-1.2-4-4.8-16.3-7.9-27.3l-5.8-20 .6 49.7.5 49.8H84V107h32.8l6.4 25.7z"/><path d="M41 60v22h12.3c14.2 0 18.4-1 23.3-5.2 5.3-4.7 6.8-8.3 6.8-16.3S81.1 46.9 76 42.7c-4.4-3.8-8.9-4.7-22.7-4.7H41v22z"/></svg>